<?xml version="1.0" encoding="UTF-8"?>
<svg version="1.1" xmlns="http://www.w3.org/2000/svg" width="500" height="150">
<path d="M0 0 C18.48 0 36.96 0 56 0 C56 14.61538462 56 14.61538462 52.0625 18.6875 C51.24136719 19.57566406 50.42023438 20.46382812 49.57421875 21.37890625 C48.29998047 22.67634766 48.29998047 22.67634766 47 24 C45.45171792 25.70234 43.90983617 27.41052724 42.375 29.125 C41.64152344 29.929375 40.90804687 30.73375 40.15234375 31.5625 C36.91297706 35.23103868 33.93836081 39.08848432 31 43 C35.0888701 42.48578968 35.0888701 42.48578968 38.87744141 40.98193359 C43.06089682 39.04659225 47.84195809 39.63063811 52.375 39.625 C53.40367187 39.60050781 54.43234375 39.57601562 55.4921875 39.55078125 C61.58532136 39.52722532 65.43636908 39.78138585 70 44 C70 44.66 70 45.32 70 46 C70.5775 46.2475 71.155 46.495 71.75 46.75 C75.48597363 48.82554091 77.64391315 50.93173944 79 55 C79.09475392 57.02952166 79.13072224 59.06201869 79.1328125 61.09375 C79.13410156 62.28871094 79.13539063 63.48367187 79.13671875 64.71484375 C79.13285156 65.96394531 79.12898437 67.21304688 79.125 68.5 C79.12886719 69.74910156 79.13273438 70.99820313 79.13671875 72.28515625 C79.13478516 74.07759766 79.13478516 74.07759766 79.1328125 75.90625 C79.13168457 77.00259766 79.13055664 78.09894531 79.12939453 79.22851562 C79 82 79 82 78 85 C77.34 85 76.68 85 76 85 C75.67 86.32 75.34 87.64 75 89 C74.34 89 73.68 89 73 89 C72.67 89.99 72.34 90.98 72 92 C71.34 92 70.68 92 70 92 C70 92.66 70 93.32 70 94 C67.06586969 95.67499606 64.97120857 96.24928174 61.60205078 96.24291992 C60.31018356 96.24753487 60.31018356 96.24753487 58.99221802 96.25224304 C57.60774979 96.24146477 57.60774979 96.24146477 56.1953125 96.23046875 C55.23857635 96.23001053 54.28184021 96.22955231 53.29611206 96.2290802 C51.27373005 96.2260616 49.25135029 96.21818701 47.22900391 96.20581055 C44.14347022 96.18760896 41.05823792 96.18530062 37.97265625 96.18554688 C36.00520575 96.1806291 34.03775728 96.17479965 32.0703125 96.16796875 C31.15138214 96.16685593 30.23245178 96.1657431 29.28567505 96.16459656 C24.73373664 96.13112215 20.48611554 95.85228024 16 95 C14.3484796 94.86528335 12.69435916 94.75883451 11.0390625 94.68359375 C10.15605469 94.64169922 9.27304687 94.59980469 8.36328125 94.55664062 C7.45964844 94.51732422 6.55601562 94.47800781 5.625 94.4375 C4.69816406 94.39431641 3.77132812 94.35113281 2.81640625 94.30664062 C0.54439706 94.20123814 -1.72770925 94.09911394 -4 94 C-4 93.67 -4 93.34 -4 93 C-4.83144531 92.93941406 -5.66289062 92.87882812 -6.51953125 92.81640625 C-8.14955078 92.69072266 -8.14955078 92.69072266 -9.8125 92.5625 C-11.43091797 92.44068359 -11.43091797 92.44068359 -13.08203125 92.31640625 C-16 92 -16 92 -19 91 C-21.19710427 90.7931123 -23.39876889 90.63330427 -25.6015625 90.5 C-26.89578125 90.4175 -28.19 90.335 -29.5234375 90.25 C-31.58195732 90.12374675 -33.64056576 89.99906195 -35.69921875 89.875 C-37.68773496 89.7537952 -39.67590723 89.62698796 -41.6640625 89.5 C-42.85467285 89.4278125 -44.0452832 89.355625 -45.27197266 89.28125 C-48 89 -48 89 -49 88 C-51.35657621 88.0653779 -53.71125763 88.20357937 -56.0625 88.375 C-57.08162476 88.44835571 -57.08162476 88.44835571 -58.12133789 88.52319336 C-62.77332132 88.87068824 -67.38294099 89.34042014 -72 90 C-72 90.66 -72 91.32 -72 92 C-73.32 92 -74.64 92 -76 92 C-76 92.66 -76 93.32 -76 94 C-81.08332401 96.05116583 -85.43033073 96.27467921 -90.8125 96.1875 C-91.97555664 96.1865332 -91.97555664 96.1865332 -93.16210938 96.18554688 C-98.859313 96.140687 -98.859313 96.140687 -100 95 C-100.07258946 92.81360547 -100.08373783 90.62499611 -100.0625 88.4375 C-100.05347656 87.23996094 -100.04445313 86.04242188 -100.03515625 84.80859375 C-100.02355469 83.88175781 -100.01195312 82.95492187 -100 82 C-99.34 82 -98.68 82 -98 82 C-98 81.34 -98 80.68 -98 80 C-90.08 80 -82.16 80 -74 80 C-73.34 78.02 -72.68 76.04 -72 74 C-71.0436126 72.30792999 -70.05589069 70.63183107 -69 69 C-68.43152344 69.22816406 -67.86304688 69.45632812 -67.27734375 69.69140625 C-62.18040661 71.58893043 -58.38358525 72.68896792 -53 71 C-50.38036865 68.89286554 -50.38036865 68.89286554 -49 66 C-49.42996846 62.25279652 -50.69555492 59.08098528 -52.20898438 55.64648438 C-52.66615845 54.60190063 -53.12333252 53.55731689 -53.59436035 52.4810791 C-54.08915894 51.3632605 -54.58395752 50.24544189 -55.09375 49.09375 C-55.60047241 47.93629272 -56.10719482 46.77883545 -56.62927246 45.58630371 C-58.24814494 41.88878351 -59.87309049 38.19398797 -61.5 34.5 C-63.64133114 29.6379893 -65.7756492 24.77297652 -67.90625 19.90625 C-68.64844788 18.22952209 -68.64844788 18.22952209 -69.40563965 16.5189209 C-69.86281372 15.47433716 -70.31998779 14.42975342 -70.79101562 13.35351562 C-71.19437134 12.4381604 -71.59772705 11.52280518 -72.01330566 10.57971191 C-72.97923735 8.05428393 -73.55503019 5.66216507 -74 3 C-77.65373605 6.51070724 -80.83222523 10.19376987 -83.875 14.25 C-86.27864445 17.43979034 -88.67273309 20.60933583 -91.23828125 23.671875 C-91.88152344 24.44015625 -92.52476562 25.2084375 -93.1875 26 C-93.75855469 26.66 -94.32960938 27.32 -94.91796875 28 C-96.17988734 29.95944964 -96.17988734 29.95944964 -96.01953125 32.30859375 C-94.55575223 36.17274604 -92.14611115 38.92599455 -89.5 42.0625 C-88.41008717 43.3895 -87.32156244 44.71764122 -86.234375 46.046875 C-85.69103516 46.70751953 -85.14769531 47.36816406 -84.58789062 48.04882812 C-82.24754076 50.92460859 -79.98482165 53.85429704 -77.75 56.8125 C-77.02296875 57.76769531 -76.2959375 58.72289062 -75.546875 59.70703125 C-74 62 -74 62 -74 64 C-92.43512964 66.55906765 -92.43512964 66.55906765 -98.1875 62.4296875 C-101.82841402 58.56121635 -104.55573445 54.15926106 -107.02050781 49.46875 C-107.34374023 48.9840625 -107.66697266 48.499375 -108 48 C-108.66 48 -109.32 48 -110 48 C-111.05481107 49.52646226 -111.05481107 49.52646226 -112.046875 51.5 C-118.83414061 63.11756218 -118.83414061 63.11756218 -124.71875 64.7578125 C-131.17361841 65.42028584 -137.5884427 64.89001863 -144 64 C-140.25411357 58.20523098 -136.3148602 52.70690713 -131.9375 47.375 C-128.11219019 42.69254651 -124.46997157 37.95346401 -121 33 C-122.40411209 29.98979708 -124.05654653 27.42558822 -126.046875 24.76953125 C-126.9440625 23.56393555 -126.9440625 23.56393555 -127.859375 22.33398438 C-128.48328125 21.50189453 -129.1071875 20.66980469 -129.75 19.8125 C-134.35803039 13.65706958 -138.80275297 7.44411127 -143 1 C-123.51414263 -0.63387607 -123.51414263 -0.63387607 -117.8984375 3.015625 C-115.90183635 5.59039251 -114.41997475 8.07293549 -113 11 C-112.18469655 12.22057125 -111.3547839 13.43174463 -110.5 14.625 C-110.005 15.40875 -109.51 16.1925 -109 17 C-106.28563211 14.5401041 -104.31342853 12.64703284 -102.6953125 9.30664062 C-100.79706833 5.7250033 -99.18702742 3.54083265 -96 1 C-89.25472776 -0.87676245 -81.90909124 -0.02902961 -75 0.3125 C-73.06133645 0.36772843 -71.12252213 0.41790958 -69.18359375 0.46289062 C-64.45198611 0.58361335 -59.72765603 0.77307505 -55 1 C-51.03288341 9.47387137 -47.22922877 17.99009541 -43.625 26.625 C-43.17511719 27.68589844 -42.72523438 28.74679688 -42.26171875 29.83984375 C-41.62556641 31.36158203 -41.62556641 31.36158203 -40.9765625 32.9140625 C-40.59580566 33.8210791 -40.21504883 34.7280957 -39.82275391 35.66259766 C-39 38 -39 38 -39 41 C-38.34 41 -37.68 41 -37 41 C-36.64292969 39.84628906 -36.28585937 38.69257812 -35.91796875 37.50390625 C-33.46798456 30.15395367 -30.33495313 23.06528247 -27.3125 15.9375 C-26.69956186 14.48515596 -26.08692914 13.03268298 -25.47460938 11.58007812 C-23.98714908 8.05163714 -22.49346012 4.52592939 -21 1 C-14.73 1 -8.46 1 -2 1 C-5.37485904 11.12457713 -5.37485904 11.12457713 -7.42016602 15.89941406 C-7.87396133 16.96371643 -8.32775665 18.0280188 -8.79530334 19.12457275 C-9.2766423 20.24362 -9.75798126 21.36266724 -10.25390625 22.515625 C-10.75542709 23.68961853 -11.25694794 24.86361206 -11.77366638 26.07318115 C-13.09703519 29.16951056 -14.4233831 32.26452607 -15.75134277 35.35888672 C-17.62521462 39.7275884 -19.49311001 44.0988504 -21.36204529 48.46966553 C-22.35488428 50.79062106 -23.34871167 53.11115409 -24.34364319 55.43121338 C-24.79428635 56.4829071 -25.2449295 57.53460083 -25.70922852 58.61816406 C-26.10433121 59.53921936 -26.4994339 60.46027466 -26.9065094 61.40924072 C-27.96945518 63.92763149 -28.99355966 66.45856473 -30 69 C-29.34 69.33 -28.68 69.66 -28 70 C-28 69.34 -28 68.68 -28 68 C-26.35 68 -24.7 68 -23 68 C-23 67.34 -23 66.68 -23 66 C-21.75336669 65.49166409 -20.50250613 64.99368855 -19.25 64.5 C-18.55390625 64.2215625 -17.8578125 63.943125 -17.140625 63.65625 C-15 63 -15 63 -11 63 C-11 62.34 -11 61.68 -11 61 C-7.37 60.01 -3.74 59.02 0 58 C-0.09152344 56.95328125 -0.18304688 55.9065625 -0.27734375 54.828125 C0.06172288 50.14805033 1.15662182 49.00590955 4.4375 45.75 C5.35273438 44.80769531 6.26796875 43.86539063 7.2109375 42.89453125 C7.91428223 42.17644287 7.91428223 42.17644287 8.63183594 41.44384766 C10.74328656 39.21559659 12.64487379 36.83283874 14.5625 34.4375 C18.29931494 29.80145152 22.21513254 25.37420514 26.25 20.99609375 C28.04781979 19.11549325 28.04781979 19.11549325 29 17 C19.43 16.67 9.86 16.34 0 16 C0 10.72 0 5.44 0 0 Z M29 44 C28.67 44.66 28.34 45.32 28 46 C28.66 46 29.32 46 30 46 C29.67 45.34 29.34 44.68 29 44 Z " fill="#C13AAF" transform="translate(387,41)"/>
<path d="M0 0 C19.48585737 -1.63387607 19.48585737 -1.63387607 25.1015625 2.015625 C27.09816365 4.59039251 28.58002525 7.07293549 30 10 C30.81530345 11.22057125 31.6452161 12.43174463 32.5 13.625 C32.995 14.40875 33.49 15.1925 34 16 C36.71436789 13.5401041 38.68657147 11.64703284 40.3046875 8.30664062 C42.20293167 4.7250033 43.81297258 2.54083265 47 0 C53.74527224 -1.87676245 61.09090876 -1.02902961 68 -0.6875 C69.93866355 -0.63227157 71.87747787 -0.58209042 73.81640625 -0.53710938 C78.54801389 -0.41638665 83.27234397 -0.22692495 88 0 C91.96711659 8.47387137 95.77077123 16.99009541 99.375 25.625 C99.82488281 26.68589844 100.27476562 27.74679688 100.73828125 28.83984375 C101.37443359 30.36158203 101.37443359 30.36158203 102.0234375 31.9140625 C102.40419434 32.8210791 102.78495117 33.7280957 103.17724609 34.66259766 C104 37 104 37 104 40 C104.66 40 105.32 40 106 40 C106.35707031 38.84628906 106.71414063 37.69257812 107.08203125 36.50390625 C109.53201544 29.15395367 112.66504687 22.06528247 115.6875 14.9375 C116.30043814 13.48515596 116.91307086 12.03268298 117.52539062 10.58007812 C119.01285092 7.05163714 120.50653988 3.52592939 122 0 C128.27 0 134.54 0 141 0 C137.6240725 10.12778251 137.6240725 10.12778251 135.64331055 14.78833008 C135.20242599 15.8300386 134.76154144 16.87174713 134.30729675 17.94502258 C133.83850601 19.04211044 133.36971527 20.1391983 132.88671875 21.26953125 C132.3946846 22.42692307 131.90265045 23.58431488 131.39570618 24.77677917 C130.3577414 27.21563541 129.31838054 29.65383693 128.27661133 32.09106445 C127.21925032 34.56525024 126.16520968 37.04080373 125.11450195 39.51782227 C123.58428672 43.12429568 122.04879737 46.7284784 120.51171875 50.33203125 C120.0490007 51.42304642 119.58628265 52.51406158 119.10954285 53.63813782 C107.63089982 80.43105026 107.63089982 80.43105026 96.7578125 86.0703125 C91.03529713 87.99943241 84.98352268 87.80931631 79 88 C76.31645894 88.26376686 73.6696341 88.6186237 71 89 C71 89.66 71 90.32 71 91 C69.68 91 68.36 91 67 91 C67 91.66 67 92.32 67 93 C61.91667599 95.05116583 57.56966927 95.27467921 52.1875 95.1875 C51.02444336 95.1865332 51.02444336 95.1865332 49.83789062 95.18554688 C44.140687 95.140687 44.140687 95.140687 43 94 C42.92741054 91.81360547 42.91626217 89.62499611 42.9375 87.4375 C42.94652344 86.23996094 42.95554687 85.04242188 42.96484375 83.80859375 C42.97644531 82.88175781 42.98804688 81.95492187 43 81 C43.66 81 44.32 81 45 81 C45 80.34 45 79.68 45 79 C52.92 79 60.84 79 69 79 C69.66 77.02 70.32 75.04 71 73 C71.9563874 71.30792999 72.94410931 69.63183107 74 68 C74.56847656 68.22816406 75.13695312 68.45632812 75.72265625 68.69140625 C80.81959339 70.58893043 84.61641475 71.68896792 90 70 C92.61963135 67.89286554 92.61963135 67.89286554 94 65 C93.57003154 61.25279652 92.30444508 58.08098528 90.79101562 54.64648438 C90.33384155 53.60190063 89.87666748 52.55731689 89.40563965 51.4810791 C88.91084106 50.3632605 88.41604248 49.24544189 87.90625 48.09375 C87.39952759 46.93629272 86.89280518 45.77883545 86.37072754 44.58630371 C84.75185506 40.88878351 83.12690951 37.19398797 81.5 33.5 C79.35866886 28.6379893 77.2243508 23.77297652 75.09375 18.90625 C74.35155212 17.22952209 74.35155212 17.22952209 73.59436035 15.5189209 C73.13718628 14.47433716 72.68001221 13.42975342 72.20898438 12.35351562 C71.80562866 11.4381604 71.40227295 10.52280518 70.98669434 9.57971191 C70.02076265 7.05428393 69.44496981 4.66216507 69 2 C65.34626395 5.51070724 62.16777477 9.19376987 59.125 13.25 C56.72135555 16.43979034 54.32726691 19.60933583 51.76171875 22.671875 C51.11847656 23.44015625 50.47523438 24.2084375 49.8125 25 C49.24144531 25.66 48.67039062 26.32 48.08203125 27 C46.82011266 28.95944964 46.82011266 28.95944964 46.98046875 31.30859375 C48.44424777 35.17274604 50.85388885 37.92599455 53.5 41.0625 C54.58991283 42.3895 55.67843756 43.71764122 56.765625 45.046875 C57.30896484 45.70751953 57.85230469 46.36816406 58.41210938 47.04882812 C60.75245924 49.92460859 63.01517835 52.85429704 65.25 55.8125 C65.97703125 56.76769531 66.7040625 57.72289062 67.453125 58.70703125 C69 61 69 61 69 63 C50.56487036 65.55906765 50.56487036 65.55906765 44.8125 61.4296875 C41.17158598 57.56121635 38.44426555 53.15926106 35.97949219 48.46875 C35.65625977 47.9840625 35.33302734 47.499375 35 47 C34.34 47 33.68 47 33 47 C31.94518893 48.52646226 31.94518893 48.52646226 30.953125 50.5 C24.16585939 62.11756218 24.16585939 62.11756218 18.28125 63.7578125 C11.82638159 64.42028584 5.4115573 63.89001863 -1 63 C2.74588643 57.20523098 6.6851398 51.70690713 11.0625 46.375 C14.88780981 41.69254651 18.53002843 36.95346401 22 32 C20.59588791 28.98979708 18.94345347 26.42558822 16.953125 23.76953125 C16.0559375 22.56393555 16.0559375 22.56393555 15.140625 21.33398438 C14.51671875 20.50189453 13.8928125 19.66980469 13.25 18.8125 C8.64196961 12.65706958 4.19724703 6.44411127 0 0 Z " fill="#FEFEFE" transform="translate(244,42)"/>
<path d="M0 0 C6.27 0 12.54 0 19 0 C19.33 11.88 19.66 23.76 20 36 C27.83567731 28.18492283 27.83567731 28.18492283 35.15625 20.0625 C38.08171521 16.7899457 41.2310328 13.74873122 44.375 10.6875 C46.93626318 8.2111329 46.93626318 8.2111329 48.45141602 5.92382812 C50.89058964 2.59342508 52.59006729 0.3327634 56.71435547 -0.640625 C59.8254923 -0.78643581 62.82982665 -0.70061951 65.9375 -0.5 C67.53561523 -0.44585938 67.53561523 -0.44585938 69.16601562 -0.390625 C71.78111316 -0.29680984 74.38863981 -0.16573994 77 0 C74.52626927 3.89766152 72.02288031 7.18772716 68.6875 10.375 C65.29763301 13.68782456 62.12305715 17.07631725 59.0390625 20.671875 C54.47437744 25.88366101 49.71334605 30.92289818 45 36 C46.54798887 40.97635684 49.51282749 44.33918792 52.8125 48.25 C58.21377981 54.76270431 63.42238492 61.39024202 68.5090332 68.15136719 C71.49375862 72.10028513 74.57802925 75.88125902 77.90063477 79.55249023 C79 81 79 81 79 83 C57.96644712 84.78208204 57.96644712 84.78208204 51.859375 81.11328125 C50.02679005 78.77358787 48.52287125 76.4319428 47.10351562 73.82421875 C44.84069794 70.08356084 41.86729768 66.84072454 39.0625 63.5 C37.94564306 62.13834168 36.8321332 60.77392822 35.72265625 59.40625 C35.24578369 58.82166016 34.76891113 58.23707031 34.27758789 57.63476562 C33.11242705 56.14385849 32.04960122 54.57440183 31 53 C26.3885919 55.1272164 22.87766273 57.77037696 20 62 C19.05343819 65.66431485 19.01869339 69.16755436 19.0625 72.9375 C19.04638672 73.90751953 19.03027344 74.87753906 19.01367188 75.87695312 C18.97858674 78.25104722 18.98506726 80.62569363 19 83 C12.73 83 6.46 83 0 83 C0 55.61 0 28.22 0 0 Z " fill="#FFFFFF" transform="translate(57,22)"/>
<path d="M0 0 C6.23518881 6.0773972 7.38269296 13.68909704 7.56391907 22.08763123 C7.58824901 26.93503949 7.52150546 31.77843954 7.4375 36.625 C7.41740364 38.64646667 7.39915842 40.66795264 7.3828125 42.68945312 C7.33906707 47.6059511 7.27021258 52.52150951 7.1875 57.4375 C1.2475 57.4375 -4.6925 57.4375 -10.8125 57.4375 C-11.3075 55.4575 -11.3075 55.4575 -11.8125 53.4375 C-12.534375 54.05625 -13.25625 54.675 -14 55.3125 C-20.45963307 59.57829542 -29.16002466 59.96667467 -36.625 58.875 C-43.30860912 57.33562647 -47.92182111 54.70631467 -52.3125 49.4375 C-54.90682646 44.16777437 -54.51733772 38.12759619 -53.8125 32.4375 C-51.43341862 26.88631012 -47.114458 24.03670207 -41.8125 21.4375 C-38.48513484 20.38719068 -35.43114932 20.32209873 -31.953125 20.33984375 C-30.83808594 20.34306641 -29.72304687 20.34628906 -28.57421875 20.34960938 C-27.41535156 20.35798828 -26.25648438 20.36636719 -25.0625 20.375 C-23.88816406 20.37951172 -22.71382812 20.38402344 -21.50390625 20.38867188 C-18.60671928 20.40044906 -15.70963546 20.41689674 -12.8125 20.4375 C-13.90575163 15.54712842 -13.90575163 15.54712842 -16.6875 11.5625 C-22.90150361 8.27273338 -29.43874912 8.87639318 -36 10.8125 C-39.33391157 11.87892082 -42.5725055 13.1138788 -45.8125 14.4375 C-46.84540841 12.50641037 -47.86348672 10.567382 -48.875 8.625 C-49.72771484 7.00658203 -49.72771484 7.00658203 -50.59765625 5.35546875 C-51.8125 2.4375 -51.8125 2.4375 -50.8125 -0.5625 C-36.49167312 -10.59779265 -13.82216594 -10.13235045 0 0 Z M-34.8125 35.4375 C-35.3963196 38.3524255 -35.3963196 38.3524255 -34.8125 41.4375 C-32.6772601 44.05489085 -31.03835612 45.21666563 -27.6875 45.8203125 C-22.25632786 46.09554082 -19.03636848 45.0579587 -14.8125 41.4375 C-12.26115075 38.88615075 -11.82431148 37.96376712 -11.7421875 34.3046875 C-11.76539063 33.35851562 -11.78859375 32.41234375 -11.8125 31.4375 C-14.37528699 31.38329299 -16.93691483 31.34372993 -19.5 31.3125 C-20.22123047 31.29574219 -20.94246094 31.27898437 -21.68554688 31.26171875 C-27.06257687 31.21261345 -30.93406951 31.55906951 -34.8125 35.4375 Z " fill="#FFFFFF" transform="translate(191.8125,47.5625)"/>
<path d="M0 0 C18.48 0 36.96 0 56 0 C56 14.61538462 56 14.61538462 52.0625 18.6875 C51.23878906 19.57824219 50.41507812 20.46898438 49.56640625 21.38671875 C48.71949219 22.24910156 47.87257813 23.11148438 47 24 C45.49360906 25.66089257 43.99343997 27.32745259 42.5 29 C41.39591797 30.21042969 41.39591797 30.21042969 40.26953125 31.4453125 C37.06861502 35.04840925 34.05390977 38.79238232 31.04296875 42.5546875 C29.15475848 44.81476327 27.08246014 46.91753986 25 49 C40.84 49.495 40.84 49.495 57 50 C57 54.62 57 59.24 57 64 C38.19 64 19.38 64 0 64 C0 51 0 51 1.87109375 47.7109375 C2.71800781 46.94007812 3.56492187 46.16921875 4.4375 45.375 C5.35273438 44.48683594 6.26796875 43.59867188 7.2109375 42.68359375 C8.13132812 41.79800781 9.05171875 40.91242188 10 40 C11.54960887 38.16981411 13.07149908 36.31573968 14.5625 34.4375 C18.29931494 29.80145152 22.21513254 25.37420514 26.25 20.99609375 C28.04781979 19.11549325 28.04781979 19.11549325 29 17 C19.43 16.67 9.86 16.34 0 16 C0 10.72 0 5.44 0 0 Z " fill="#FEFEFE" transform="translate(387,41)"/>
<path d="M0 0 C6.27 0 12.54 0 19 0 C19 20.79 19 41.58 19 63 C12.73 63 6.46 63 0 63 C0 42.21 0 21.42 0 0 Z " fill="#FFFFFF" transform="translate(215,42)"/>
<path d="M0 0 C7.59 0 15.18 0 23 0 C23.33 0.99 23.66 1.98 24 3 C26.31869204 4.46293963 26.31869204 4.46293963 29.0625 5.6875 C29.98160156 6.12449219 30.90070313 6.56148438 31.84765625 7.01171875 C32.55792969 7.33785156 33.26820313 7.66398438 34 8 C30.91190305 9.76462683 29.76687864 10 26 10 C26 10.66 26 11.32 26 12 C24.68 12 23.36 12 22 12 C22 12.66 22 13.32 22 14 C16.91667599 16.05116583 12.56966927 16.27467921 7.1875 16.1875 C6.02444336 16.1865332 6.02444336 16.1865332 4.83789062 16.18554688 C-0.859313 16.140687 -0.859313 16.140687 -2 15 C-2.07258946 12.81360547 -2.08373783 10.62499611 -2.0625 8.4375 C-2.05347656 7.23996094 -2.04445313 6.04242188 -2.03515625 4.80859375 C-2.02355469 3.88175781 -2.01195312 2.95492187 -2 2 C-1.34 2 -0.68 2 0 2 C0 1.34 0 0.68 0 0 Z " fill="#B926E0" transform="translate(289,121)"/>
<path d="M0 0 C2.59079929 1.72309692 3.8178368 3.59442195 4.48828125 6.6015625 C4.76694573 11.26919246 4.50142034 13.51677459 1.58203125 17.28125 C-2.93162298 20.61275669 -6.52202506 20.91349963 -12.04296875 20.21875 C-17.50638338 17.29192073 -17.50638338 17.29192073 -19.04296875 14.21875 C-19.77137955 9.00922975 -19.92428502 5.40971793 -16.73046875 1.09375 C-11.83146178 -2.16449691 -5.37322127 -2.05476913 0 0 Z " fill="#FFFFFF" transform="translate(232.04296875,12.78125)"/>
<path d="M0 0 C1.03769531 -0.02900391 2.07539063 -0.05800781 3.14453125 -0.08789062 C9.27788444 -0.13880607 13.16111072 0.04799772 17.75 4.3125 C17.75 4.9725 17.75 5.6325 17.75 6.3125 C18.3275 6.56 18.905 6.8075 19.5 7.0625 C22.13704101 8.52752278 23.82358864 9.98752077 25.75 12.3125 C26.5 15.0625 26.5 15.0625 26.75 17.3125 C25.43 17.6425 24.11 17.9725 22.75 18.3125 C22.255 17.095625 21.76 15.87875 21.25 14.625 C18.19598864 8.52776884 13.39052513 6.28532505 7.1875 4 C1.7854037 2.91958074 -2.39835763 2.56323599 -7.25 5.3125 C-8.91321482 5.66265049 -10.58034549 5.99447057 -12.25 6.3125 C-14.23 6.9725 -16.21 7.6325 -18.25 8.3125 C-10.66 8.6425 -3.07 8.9725 4.75 9.3125 C4.75 9.6425 4.75 9.9725 4.75 10.3125 C-6.14 10.3125 -17.03 10.3125 -28.25 10.3125 C-27.26 8.9925 -26.27 7.6725 -25.25 6.3125 C-24.26 6.3125 -23.27 6.3125 -22.25 6.3125 C-22.25 5.6525 -22.25 4.9925 -22.25 4.3125 C-21.62351562 4.10753906 -20.99703125 3.90257813 -20.3515625 3.69140625 C-19.53429687 3.42199219 -18.71703125 3.15257813 -17.875 2.875 C-17.06289063 2.60816406 -16.25078125 2.34132813 -15.4140625 2.06640625 C-10.07364416 0.2059356 -5.74154187 0.05270693 0 0 Z " fill="#C56091" transform="translate(439.25,80.6875)"/>
<path d="M0 0 C1.23427734 0.1340625 2.46855469 0.268125 3.74023438 0.40625 C5.03638672 0.55320312 6.33253906 0.70015625 7.66796875 0.8515625 C8.95251953 0.99078125 10.23707031 1.13 11.56054688 1.2734375 C16.71272908 1.84202814 21.77463715 2.44909348 26.85546875 3.4765625 C29.24953898 3.64893556 31.64578948 3.79234044 34.04296875 3.9140625 C40.13559212 4.28439843 45.92638408 5.03963139 51.85546875 6.4765625 C51.85546875 7.1365625 51.85546875 7.7965625 51.85546875 8.4765625 C46.24546875 8.4765625 40.63546875 8.4765625 34.85546875 8.4765625 C34.85546875 8.1465625 34.85546875 7.8165625 34.85546875 7.4765625 C34.02402344 7.41597656 33.19257813 7.35539063 32.3359375 7.29296875 C31.24925781 7.20917969 30.16257812 7.12539062 29.04296875 7.0390625 C27.96402344 6.95785156 26.88507813 6.87664062 25.7734375 6.79296875 C22.85546875 6.4765625 22.85546875 6.4765625 19.85546875 5.4765625 C17.64683509 5.25801569 15.43342406 5.08647224 13.21875 4.94140625 C11.92001953 4.85439453 10.62128906 4.76738281 9.28320312 4.67773438 C7.91146381 4.58975826 6.53971895 4.50186874 5.16796875 4.4140625 C3.78448119 4.32262836 2.40101727 4.23083567 1.01757812 4.13867188 C-2.36957525 3.91443524 -5.75692824 3.69388282 -9.14453125 3.4765625 C-8.81453125 2.4865625 -8.48453125 1.4965625 -8.14453125 0.4765625 C-5.27854014 -0.95643306 -3.17427588 -0.34965661 0 0 Z " fill="#C464CC" transform="translate(348.14453125,126.5234375)"/>
<path d="M0 0 C0.33 0.66 0.66 1.32 1 2 C2.7015625 1.9690625 2.7015625 1.9690625 4.4375 1.9375 C8 2 8 2 9 3 C14.30954926 3.95998547 19.61492947 4.04369436 24.9921875 3.96875 C27.41514372 4.00646138 29.64580786 4.44607244 32 5 C32.99 5 33.98 5 35 5 C35 5.66 35 6.32 35 7 C42.59 7 50.18 7 58 7 C57.67 7.99 57.34 8.98 57 10 C60.96 10.33 64.92 10.66 69 11 C69 11.33 69 11.66 69 12 C65.52090629 12.05883728 62.04194326 12.09387399 58.5625 12.125 C57.58861328 12.14175781 56.61472656 12.15851563 55.61132812 12.17578125 C49.41151925 12.21725154 43.99995705 11.57599699 38 10 C38 9.34 38 8.68 38 8 C36.99755249 7.92483154 36.99755249 7.92483154 35.97485352 7.84814453 C22.61111281 6.83700794 9.2927559 5.71873322 -4 4 C-2.68 2.68 -1.36 1.36 0 0 Z " fill="#BD3AC5" transform="translate(362,125)"/>
<path d="M0 0 C0 0.99 0 1.98 0 3 C-0.97839844 3.25523438 -0.97839844 3.25523438 -1.9765625 3.515625 C-7.41077727 5.02245741 -11.30446751 6.83770261 -16 10 C-21.50223471 12.34982655 -27.02151765 14.35367758 -33 15 C-32.34 14.01 -31.68 13.02 -31 12 C-30.01 12 -29.02 12 -28 12 C-28 11.34 -28 10.68 -28 10 C-26.35 10 -24.7 10 -23 10 C-23 9.34 -23 8.68 -23 8 C-21.75336669 7.49166409 -20.50250613 6.99368855 -19.25 6.5 C-18.55390625 6.2215625 -17.8578125 5.943125 -17.140625 5.65625 C-15 5 -15 5 -11 5 C-11 4.34 -11 3.68 -11 3 C-9.54293274 2.49632243 -8.08429904 1.99717444 -6.625 1.5 C-5.81289063 1.2215625 -5.00078125 0.943125 -4.1640625 0.65625 C-2 0 -2 0 0 0 Z " fill="#C46BBB" transform="translate(387,99)"/>
<path d="M0 0 C-5.66507011 3.08900201 -10.50857435 5.57664615 -17 6 C-17 6.66 -17 7.32 -17 8 C-7.43 8 2.14 8 12 8 C12 8.33 12 8.66 12 9 C1.11 9 -9.78 9 -21 9 C-20.01 7.68 -19.02 6.36 -18 5 C-17.01 5 -16.02 5 -15 5 C-15 4.34 -15 3.68 -15 3 C-14.37351562 2.79503906 -13.74703125 2.59007813 -13.1015625 2.37890625 C-12.28429687 2.10949219 -11.46703125 1.84007813 -10.625 1.5625 C-9.81289063 1.29566406 -9.00078125 1.02882813 -8.1640625 0.75390625 C-3.22383073 -0.96714922 -3.22383073 -0.96714922 0 0 Z " fill="#CF79AA" transform="translate(432,82)"/>
<path d="M0 0 C9.46383622 0.45637789 18.67809502 1.18152232 28 3 C28 3.33 28 3.66 28 4 C24.45835085 4.0292067 20.91673303 4.04686814 17.375 4.0625 C15.87646484 4.07506836 15.87646484 4.07506836 14.34765625 4.08789062 C9.44979725 4.1041087 4.81343801 4.04318537 0 3 C0 2.01 0 1.02 0 0 Z " fill="#C764C7" transform="translate(403,133)"/>
<path d="M0 0 C0.57105469 0.37769531 1.14210938 0.75539062 1.73046875 1.14453125 C-1.3576282 2.90915808 -2.50265261 3.14453125 -6.26953125 3.14453125 C-6.26953125 3.80453125 -6.26953125 4.46453125 -6.26953125 5.14453125 C-7.58953125 5.14453125 -8.90953125 5.14453125 -10.26953125 5.14453125 C-10.26953125 5.80453125 -10.26953125 6.46453125 -10.26953125 7.14453125 C-14.77306387 8.90200739 -18.44592936 9.33747533 -23.26953125 9.14453125 C-21.95455956 6.51458788 -20.99753907 6.22137644 -18.26953125 5.14453125 C-17.21765625 5.04140625 -16.16578125 4.93828125 -15.08203125 4.83203125 C-10.73581731 4.04828775 -8.02805306 2.40991596 -4.3828125 0.0078125 C-2.26953125 -0.85546875 -2.26953125 -0.85546875 0 0 Z " fill="#C76ADC" transform="translate(321.26953125,127.85546875)"/>
<path d="M0 0 C7.59 0 15.18 0 23 0 C23 0.99 23 1.98 23 3 C22.02389771 2.97643433 22.02389771 2.97643433 21.02807617 2.95239258 C18.08130576 2.89005351 15.13467402 2.85101316 12.1875 2.8125 C11.16333984 2.78736328 10.13917969 2.76222656 9.08398438 2.73632812 C8.10107422 2.72666016 7.11816406 2.71699219 6.10546875 2.70703125 C5.19949951 2.6913208 4.29353027 2.67561035 3.36010742 2.65942383 C0.57555794 3.06124927 -0.27599535 3.83688562 -2 6 C-2 4.68 -2 3.36 -2 2 C-1.34 2 -0.68 2 0 2 C0 1.34 0 0.68 0 0 Z " fill="#C367D7" transform="translate(289,121)"/>
<path d="M0 0 C0.93423645 3.01031744 1.04449911 3.86650268 0 7 C-0.66 7 -1.32 7 -2 7 C-2.33 8.32 -2.66 9.64 -3 11 C-3.66 11 -4.32 11 -5 11 C-5.33 11.99 -5.66 12.98 -6 14 C-6.66 14 -7.32 14 -8 14 C-8 14.66 -8 15.32 -8 16 C-11.13498292 17.85776765 -13.37471432 18.20140476 -17 18 C-16.34 17.67 -15.68 17.34 -15 17 C-15 16.34 -15 15.68 -15 15 C-14.113125 14.608125 -13.22625 14.21625 -12.3125 13.8125 C-6.17826969 10.45603436 -3.18153367 6.00956359 0 0 Z " fill="#CC74BF" transform="translate(465,119)"/>
<path d="M0 0 C0.75410156 0.09990234 1.50820313 0.19980469 2.28515625 0.30273438 C4.14917753 0.55048404 6.01219288 0.80578057 7.875 1.0625 C7.875 2.0525 7.875 3.0425 7.875 4.0625 C1.605 3.7325 -4.665 3.4025 -11.125 3.0625 C-10.795 2.0725 -10.465 1.0825 -10.125 0.0625 C-6.87932383 -1.56033808 -3.48660376 -0.48475234 0 0 Z " fill="#CC6CD9" transform="translate(350.125,126.9375)"/>
<path d="M0 0 C-1.1875 1.5 -1.1875 1.5 -3 3 C-4.66611905 3.042721 -6.33382885 3.04063832 -8 3 C-10.08333333 3.83333333 -10.08333333 3.83333333 -12 5 C-15.16979879 6.84052833 -17.33222736 7.20376515 -21 7 C-21 6.34 -21 5.68 -21 5 C-18.81716075 4.15229544 -16.63003921 3.32192453 -14.4375 2.5 C-13.21933594 2.0359375 -12.00117188 1.571875 -10.74609375 1.09375 C-6.9581081 -0.01223121 -3.92096767 -0.20185162 0 0 Z " fill="#C65391" transform="translate(436,83)"/>
<path d="M0 0 C1.10891602 -0.01836914 1.10891602 -0.01836914 2.24023438 -0.03710938 C7.4584834 -0.05080557 11.92105907 0.74691027 16.9375 2.1875 C13.53379931 3.3220669 11.13542497 2.89614381 7.6328125 2.4453125 C2.74448005 1.97773287 -2.15709865 2.11279846 -7.0625 2.1875 C-7.7225 3.5075 -8.3825 4.8275 -9.0625 6.1875 C-9.7225 6.1875 -10.3825 6.1875 -11.0625 6.1875 C-8.51062677 -0.44737041 -6.85871637 0.00576847 0 0 Z " fill="#BA3CD6" transform="translate(298.0625,122.8125)"/>
<path d="M0 0 C0.99 0 1.98 0 3 0 C3 0.66 3 1.32 3 2 C4.423125 1.9071875 4.423125 1.9071875 5.875 1.8125 C6.90625 1.874375 7.9375 1.93625 9 2 C9.99 3.485 9.99 3.485 11 5 C6.05 4.67 1.1 4.34 -4 4 C-2.68 2.68 -1.36 1.36 0 0 Z " fill="#BA33CB" transform="translate(347,123)"/>
<path d="M0 0 C8.60363924 -0.68829114 8.60363924 -0.68829114 12.5625 1.875 C13.366875 2.57625 14.17125 3.2775 15 4 C15 4.66 15 5.32 15 6 C10 4.33333333 5 2.66666667 0 1 C0 0.67 0 0.34 0 0 Z " fill="#C9799F" transform="translate(442,81)"/>
<path d="M0 0 C0 0.33 0 0.66 0 1 C-5.93609666 1.89316269 -11.06975197 1.97040422 -17 1 C-17 0.67 -17 0.34 -17 0 C-11.06975197 -0.97040422 -5.93609666 -0.89316269 0 0 Z " fill="#BF3CBE" transform="translate(440,135)"/>
<path d="M0 0 C-0.66 1.32 -1.32 2.64 -2 4 C-4.31 4 -6.62 4 -9 4 C-7.04565548 0.09131097 -4.13449517 0 0 0 Z " fill="#BD54DF" transform="translate(307,133)"/>
<path d="M0 0 C3.21365891 1.10815825 3.9914224 1.98529554 5.75 5 C7 8 7 8 7 10 C6.34 10 5.68 10 5 10 C1.125 3.375 1.125 3.375 0 0 Z " fill="#D286AE" transform="translate(459,88)"/>
<path d="M0 0 C2.64 0 5.28 0 8 0 C8 0.99 8 1.98 8 3 C5.6568787 2.74438677 3.32156597 2.40729228 1 2 C0.67 1.34 0.34 0.68 0 0 Z " fill="#D16EDB" transform="translate(367,130)"/>
<path d="M0 0 C1.98 0 3.96 0 6 0 C6 0.99 6 1.98 6 3 C4.35 3 2.7 3 1 3 C0.67 2.01 0.34 1.02 0 0 Z " fill="#B974C4" transform="translate(306,121)"/>
<path d="M0 0 C2.31 0 4.62 0 7 0 C7 0.33 7 0.66 7 1 C4.69 1 2.38 1 0 1 C0 0.67 0 0.34 0 0 Z " fill="#B968CB" transform="translate(292,119)"/>
</svg>
